Simulation
nRows=47
nColumns=15
endheader
time  TH_x TH_y TH_z SC_y  SC_z  SC_x  AC_y  AC_z  AC_x  GH_y  GH_z  GH_yy  EL_x  PS_y
8.045112781954886  0.000000  0.000000  0.000000  -22.66404978029622  8.387857361985386  15.666083323666097  56.0819281075131  15.000092898375486  8.065266533604873  43.143918128841555  51.84922429940942  -62.221829286110676  78.24403414153228  120.000000
8.085338345864661  0.000000  0.000000  0.000000  -22.408589113736017  8.344578543113371  15.413298942560965  56.12202728868409  14.705320114515189  7.7235400512153305  43.57075128210104  51.90377584662324  -61.82773133122038  75.05417864454492  120.000000
8.125563909774437  0.000000  0.000000  0.000000  -22.151038595788094  8.297279715511513  15.148345950944018  56.16789486471377  14.401783211074395  7.388818756751734  43.99306768007227  51.949040953102646  -61.36666560983098  71.83643256451641  120.000000
8.16578947368421  0.000000  0.000000  0.000000  -21.89455393555458  8.245901504589861  14.874989259439655  56.22010884423278  14.091245113225076  7.064537504188702  44.41087655471097  51.98501961816243  -60.84281595756895  68.62430171049081  120.000000
8.206015037593986  0.000000  0.000000  0.000000  -21.64231656947039  8.190493249030947  14.597402461502137  56.27958308242852  13.775401458850098  6.75374265133659  44.82426080606188  52.01193744972909  -60.26065761566728  65.45102521096622  120.000000
8.246240601503759  0.000000  0.000000  0.000000  -21.397484640255087  8.131145985972655  14.320068773897782  56.347556158988745  13.455981448563376  6.459055973785974  45.233322182877274  52.030133195140365  -59.62487294606745  62.34988378974533  120.000000
8.286466165413534  0.000000  0.000000  0.000000  -21.163124198450163  8.067902018708093  14.04764390519437  56.42551549858209  13.134846669328956  6.182657732161403  45.6381028709853  52.03986847189693  -58.940250595698004  59.3545633284216  120.000000
8.326691729323308  0.000000  0.000000  0.000000  -20.942099791279784  8.000721044675002  13.784701129619366  56.51515763469411  12.814047191779492  5.926227924764142  46.03853585248936  52.041101251711936  -58.21181597873698  56.49936917920705  120.000000
8.366917293233083  0.000000  0.000000  0.000000  -20.736909683751225  7.929506819786062  13.53544988205584  56.61821366954697  12.495754815505466  5.690822819255938  46.43435002303351  52.03327667223751  -57.44523129168193  53.81860807746658  120.000000
8.407142857142857  0.000000  0.000000  0.000000  -20.54951379090557  7.854167990094156  13.303446397386185  56.736031182936955  12.182154347410782  5.476815753676659  46.824824022995976  52.0152772020141  -56.647338290702834  51.34409615157364  120.000000
8.447368421052632  0.000000  0.000000  0.000000  -20.381194846726128  7.77479152342502  13.091337129192278  56.869035842429184  11.875405203346066  5.2840358499735  47.20846611952747  51.98562390996986  -55.826812467602394  49.10062909678777  120.000000
8.487593984962405  0.000000  0.000000  0.000000  -20.23259961162804  7.691871363831785  12.90065569898641  57.01623556963499  11.577723880312815  5.11189878654818  47.58273551667717  51.94286150716585  -54.99469341335465  47.101590704030826  120.000000
8.52781954887218  0.000000  0.000000  0.000000  -20.103874051358723  7.606404738645599  12.731607519009003  57.17497658266809  11.29143130619037  4.959390263583825  47.94383906644802  51.88578371787755  -54.16450063756793  45.34780164224802  120.000000
8.568045112781954  0.000000  0.000000  0.000000  -19.994412936653454  7.519877881725823  12.582824079643142  57.340944655722424  11.01887923380042  4.82512645238173  48.28670402163116  51.813260875973455  -53.351887014143614  43.830006117138396  120.000000
8.60827067669173  0.000000  0.000000  0.000000  -19.902684464487645  7.43403668371938  12.45131910778366  57.50848535534643  10.76254828965606  4.707487138816146  48.605367990285465  51.723944923834075  -52.57409360174354  42.53264706659802  120.000000
8.648496240601503  0.000000  0.000000  0.000000  -19.826480420795388  7.350635329229311  12.332718646894467  57.67110288982487  10.525244868392146  4.604732425010953  48.89340764529782  51.61614536567597  -51.84947445719208  41.43723047715942  120.000000
8.688721804511278  0.000000  0.000000  0.000000  -19.76316783907106  7.271389770935394  12.221610168318389  57.82176362904179  10.310199039698409  4.515160211154424  49.144119222534094  51.487847793080206  -51.19709306115388  40.524650559285526  120.000000
8.728947368421052  0.000000  0.000000  0.000000  -19.709931501087837  7.197954211353686  12.111921939750788  57.953145873942056  10.121138467675797  4.437207560832359  49.350620478764185  51.336810314962605  -50.63650122736599  39.776259491429165  120.000000
8.769172932330827  0.000000  0.000000  0.000000  -19.66404803205347  7.131929310650624  11.997224206758434  58.05784191214424  9.962220508545785  4.369498146630208  49.50590880604371  51.16072045149181  -50.18764373449936  39.17403875889162  120.000000
8.8093984962406  0.000000  0.000000  0.000000  -19.62318521004519  7.074881115433528  11.870952868293976  58.12850234759707  9.837858900885468  4.310819687152266  49.602957988286555  50.95733571827489  -49.870770135183044  38.70023815613522  120.000000
8.849624060150376  0.000000  0.000000  0.000000  -19.585727823234325  7.028326865562221  11.726569739515815  58.157999606383065  9.752427046333132  4.260074947767616  49.63489660830667  50.7246001136697  -49.70612270937532  38.33690025586763  120.000000
8.889849624060151  0.000000  0.000000  0.000000  -19.551051613913433  6.993678787318231  11.55772373389684  58.13969497283838  9.709884371538307  4.216270107337439  49.595365663807  50.460703668874295  -49.71308568206517  38.06566550987406  120.000000
8.930075187969924  0.000000  0.000000  0.000000  -19.51956134089297  6.972134408346705  11.358475362740688  58.067892370116994  9.713375878257912  4.1786152843751765  49.47895451562539  50.164034499964664  -49.90824483755063  37.868261491323054  120.000000
8.9703007518797  0.000000  0.000000  0.000000  -19.4923794219596  6.96453868891004  11.12361164029532  57.9384299346701  9.764953960725883  4.146753691141853  49.28157278293675  49.83289049823046  -50.302109287719034  37.727974698494506  120.000000
9.010526315789473  0.000000  0.000000  0.000000  -19.47078447337181  6.971221756733685  10.848967315430022  57.74930659553712  9.865484492965521  4.121012890254777  49.00059109702967  49.4650248984622  -50.895136603243685  37.63174046278927  120.000000
9.050751879699249  0.000000  0.000000  0.000000  -19.455699069913294  6.991847454419134  10.531639060655662  57.5011854948107  10.014644934429256  4.102585587762544  48.63487289269692  49.05725139125533  -51.674700764494546  37.5717229163029  120.000000
9.090977443609022  0.000000  0.000000  0.000000  -19.4474637928565  7.025275687769325  10.170035203834649  57.19762979007158  10.21090756529194  4.093465616489852  48.18483197548066  48.60533064329297  -52.61431334930404  37.54561219549467  120.000000
9.131203007518797  0.000000  0.000000  0.000000  -19.44594882562397  7.069471303763361  9.76383680741606  56.84498280751635  10.451506280697956  4.0961228024113785  47.65235204087101  48.10402458412333  -53.67478991779089  37.55583803587409  120.000000
9.17142857142857  0.000000  0.000000  0.000000  -19.450915071232387  7.121500918013515  9.313926497531142  56.45195432857311  10.732437137937026  4.112930300158999  47.040612605131734  47.54728106804045  -54.80687975682803  37.60817312981193  120.000000
9.211654135338346  0.000000  0.000000  0.000000  -19.462461664293592  7.177546825067034  8.82234187797293  56.02904738134943  11.0484799765617  4.145566490456197  46.35383219673933  46.9284976953121  -55.95451315868084  37.71008967607072  120.000000
9.25187969924812  0.000000  0.000000  0.000000  -19.4813380152483  7.233106183978303  8.292422837420439  55.587941287214825  11.393142072796401  4.194441250696663  45.59710048775336  46.24077208678257  -57.05792604573947  37.869297469528426  120.000000
9.292105263157895  0.000000  0.000000  0.000000  -19.50903450113652  7.283216763006714  7.7288955980450265  55.141026887840425  11.75862689151378  4.258384453466425  44.7761696638958  45.477074011351554  -58.05573109863555  38.09304059970347  120.000000
9.332330827067668  0.000000  0.000000  0.000000  -19.54744523097241  7.322634228837939  7.137063650303039  54.70096920979554  12.136574722949083  4.3349458341173746  43.89746246717407  44.63038134160877  -58.88603219932287  38.3881872683042  120.000000
9.372556390977444  0.000000  0.000000  0.000000  -19.59822226162427  7.34622525963224  6.5219742246087975  54.28028108567503  12.518641573923812  4.421135837252359  42.96830466325812  43.69383104544302  -59.486971567052514  38.76153473799614  120.000000
9.412781954887217  0.000000  0.000000  0.000000  -19.662251546495746  7.349187383668802  5.888124620105798  53.89124537908978  12.896545257530528  4.5136159647679746  41.996920517002955  42.66114533899317  -59.79728511895931  39.22053530289283  120.000000
9.453007518796992  0.000000  0.000000  0.000000  -19.73909750916834  7.327150133425137  5.238931964254918  53.545475204781816  13.262471661737306  4.609009373340747  40.99181960525024  41.52716813325694  -59.757725413022754  39.77331335341429  120.000000
9.493233082706766  0.000000  0.000000  0.000000  -19.826642758545166  7.276537794123559  4.576285943612767  53.252918703362774  13.609655994007335  4.704804863573454  39.96087556904189  40.2884972159707  -59.3138567851619  40.42698737901598  120.000000
9.533458646616541  0.000000  0.000000  0.000000  -19.92160886981829  7.194806034554212  3.9006307503257647  53.021310015718385  13.932891191335312  4.799857158404804  38.910646473374655  38.94423076491662  -58.42015516226174  41.186776881953605  120.000000
9.573684210526316  0.000000  0.000000  0.000000  -20.02071719233385  7.080426862787291  3.2113435614401835  52.856119485667676  14.228929224231136  4.894305067121931  37.8467905902327  37.49703546184095  -57.04529435613198  42.055105010328326  120.000000
9.61390977443609  0.000000  0.000000  0.000000  -20.121575616538998  6.932998685672574  2.507461216601812  52.76027178397883  14.496519169769671  4.98946434088904  36.7748309040178  35.953626220212236  -55.1761874967795  43.02980509156924  120.000000
9.654135338345865  0.000000  0.000000  0.000000  -20.22316764862758  6.753388749124352  1.7884479537252373  52.733825257866336  14.735952986710547  5.087403627362012  35.700862313430875  34.324574308023934  -52.819898950839885  44.1033928609027  120.000000
9.694360902255639  0.000000  0.000000  0.000000  -20.326308165581136  6.543653387462141  1.0548888841665858  52.774368009418126  14.948402853680255  5.190386212674141  34.63282104839744  32.623793973649946  -50.00445625371678  45.26325994320326  120.000000
9.734586466165414  0.000000  0.000000  0.000000  -20.433132322105443  6.306924926654374  0.30901258698018325  52.87744291212211  15.135248972474136  5.30046305811509  33.581059250369044  30.867452136706216  -46.77600225253643  46.49315217375128  120.000000
9.774812030075188  0.000000  0.000000  0.000000  -20.54589133018894  6.047326796604729  -0.44512414317053356  53.03702149404376  15.297753246641133  5.4192490078351545  32.557629774709106  29.07282358245672  -43.192146748284905  47.77511437824231  120.000000
9.815037593984963  0.000000  0.000000  0.000000  -20.666192806385823  5.7698932533757965  -1.2016759011674123  53.24631601562634  15.436938959216548  5.547854375741972  31.575095431513798  27.25737523129505  -39.315863314995134  49.09075946446001  120.000000
9.855263157894736  0.000000  0.000000  0.000000  -20.794575369201795  5.480170901677269  -1.9532838409541542  53.498146519542296  15.553500269231066  5.686528669290552  30.644649649214813  25.438155283697117  -35.21024462786895  50.42220568107947  120.000000
9.895488721804512  0.000000  0.000000  0.000000  -20.930584671584  5.183645172395863  -2.6914134323398673  53.78527154007398  15.647841195654882  5.834387552714902  29.775058645870057  23.631539620195376  -30.93580276766872  51.75219062810697  120.000000
